# xmcd
#
# Track frame offsets:
#	150
#	13168
#	28932
#	42782
#	59401
#	71457
#	86610
#	101136
#	111594
#	125692
#	141388
#	156433
#	171783
#	184820
#	196838
#	206236
#	219124
#	231144
#	265346
#	285624
#
# Disc length: 4060 seconds
#
# Revision: 0
# Processed by: cddbd v1.5.2PL0 Copyright (c) Steve Scherf et al.
# Submitted via: VUPlayer 2.49
#
DISCID=350fda14
DTITLE=Dr. Hook - All The Best Dr. Hook
DYEAR=2012
DGENRE=Rock
TTITLE0=When You're In Love With A Beautiful Woman
TTITLE1=Sexy Eyes
TTITLE2=Walk Right In
TTITLE3=More Like The Movies
TTITLE4=Sweetest Of All
TTITLE5=I Don't Want To Be Alone Tonight
TTITLE6=Sleeping Late
TTITLE7=You Make My Pants Want To Get Up And Dance
TTITLE8=A Couple More Years
TTITLE9=The Radio
TTITLE10=Jungle To The Zoo
TTITLE11=Storms Never Last
TTITLE12=Oh! Jesse
TTITLE13=Mountain Mary
TTITLE14=Who Dat
TTITLE15=On The Way To The Bottom
TTITLE16=Up On The Mountain
TTITLE17=Carry Me Carrie (Live)
TTITLE18=Sylvia's Mother (Live)
TTITLE19=The Cover Of The Rolling Stone (Live)
EXTD=
EXTT0=
EXTT1=
EXTT2=
EXTT3=
EXTT4=
EXTT5=
EXTT6=
EXTT7=
EXTT8=
EXTT9=
EXTT10=
EXTT11=
EXTT12=
EXTT13=
EXTT14=
EXTT15=
EXTT16=
EXTT17=
EXTT18=
EXTT19=
PLAYORDER=
